HIERARCHY
ROOT hip
{
	OFFSET 0.000000 0.000000 0.000000 
	CHANNELS 6 Xposition Yposition Zposition Xrotation Zrotation Yrotation
	JOINT abdomen
	{
		OFFSET 0.000000 3.402643 0.000000 
		CHANNELS 3 Xrotation Zrotation Yrotation
		JOINT chest
		{
			OFFSET 0.000000 8.438565 -0.680529 
			CHANNELS 3 Xrotation Zrotation Yrotation
			JOINT neck
			{
				OFFSET 0.000000 10.207942 -0.272212 
				CHANNELS 3 Xrotation Zrotation Yrotation
				JOINT head
				{
					OFFSET 0.000000 3.130431 0.000000 
					CHANNELS 3 Xrotation Zrotation Yrotation
					End Site
					{
						OFFSET 0.000000 3.130435 0.000000 
					}
				}
			}
			JOINT lCollar
			{
				OFFSET 3.470700 6.669187 -0.816635 
				CHANNELS 3 Yrotation Zrotation Xrotation
				JOINT lShldr
				{
					OFFSET 3.198488 0.000000 0.000000 
					CHANNELS 3 Zrotation Yrotation Xrotation
					JOINT lForeArm
					{
						OFFSET 10.139888 0.000000 0.000000 
						CHANNELS 3 Yrotation Zrotation Xrotation
						JOINT lHand
						{
							OFFSET 8.370511 0.000000 0.000000 
							CHANNELS 3 Zrotation Yrotation Xrotation
							End Site
							{
								OFFSET 4.083176 0.000000 0.000000 
							}
						}
					}
				}
			}
			JOINT rCollar
			{
				OFFSET -3.470700 6.669187 -0.816635 
				CHANNELS 3 Yrotation Zrotation Xrotation
				JOINT rShldr
				{
					OFFSET -3.198488 0.000000 0.000000 
					CHANNELS 3 Zrotation Yrotation Xrotation
					JOINT rForeArm
					{
						OFFSET -10.139888 0.000000 0.000000 
						CHANNELS 3 Yrotation Zrotation Xrotation
						JOINT rHand
						{
							OFFSET -8.370511 0.000000 0.000000 
							CHANNELS 3 Zrotation Yrotation Xrotation
							End Site
							{
								OFFSET -4.083176 0.000000 0.000000 
							}
						}
					}
				}
			}
		}
	}
	JOINT lThigh
	{
		OFFSET 5.308129 -1.633274 1.361059 
		CHANNELS 3 Xrotation Zrotation Yrotation
		JOINT lShin
		{
			OFFSET -2.041588 -20.007561 0.000000 
			CHANNELS 3 Xrotation Zrotation Yrotation
			JOINT lFoot
			{
				OFFSET 0.000000 -19.190928 -1.224953 
				CHANNELS 3 Xrotation Yrotation Zrotation
				End Site
				{
					OFFSET 0.000000 -2.449906 4.627600 
				}
			}
		}
	}
	JOINT rThigh
	{
		OFFSET -5.308129 -1.633274 1.361059 
		CHANNELS 3 Xrotation Zrotation Yrotation
		JOINT rShin
		{
			OFFSET 2.041588 -20.007561 0.000000 
			CHANNELS 3 Xrotation Zrotation Yrotation
			JOINT rFoot
			{
				OFFSET 0.000000 -19.190928 -1.224953 
				CHANNELS 3 Xrotation Yrotation Zrotation
				End Site
				{
					OFFSET 0.000000 -2.449906 4.627600 
				}
			}
		}
	}
}
MOTION
Frames: 11
Frame Time: 0.033333
-2.626289 52.412857 3.156645 21.191406 11.630859 -33.123032 41.930626 -7.437826 -9.893556 -24.921877 14.755860 4.765626 51.063168 8.107644 2.471410 -87.841797 -1.376953 5.009766 2.000000 -2.000000 0.000000 -81.689453 24.228516 -9.546774 -77.112167 -0.766508 -2.797901 -25.151930 43.976196 -25.476311 -2.000000 2.000000 0.000000 71.347656 -22.890625 -9.456922 74.098793 0.960780 -2.943247 -12.005148 -52.282501 17.458538 -13.056694 12.558650 6.092841 5.740045 -5.222924 -0.892301 -7.032937 4.687151 -7.953620 -51.522629 -16.630455 -22.525463 34.102581 4.178817 2.440436 1.409869 -2.383090 12.066443 
-5.252544 51.021297 6.313243 20.371094 10.556642 -29.666182 41.763454 -4.884164 -10.143521 -24.072266 17.343750 4.687500 51.063168 8.107644 2.471410 -88.652344 -3.388672 6.123048 2.000000 -2.000000 0.000000 -82.578125 24.082031 -7.353516 -78.154778 -0.566435 -2.721503 -26.459324 43.279934 -26.988623 -2.000000 2.000000 0.000000 71.367195 -25.302734 -13.129174 78.127327 0.648386 -2.785307 -13.326320 -52.416924 19.943903 -9.390004 12.346748 4.326427 10.132419 -5.193831 -1.121635 -14.387688 4.210481 -5.324924 -54.029877 -19.518452 -24.973824 28.999323 4.452259 2.429386 -7.290500 -1.056610 14.016631 
-8.111516 49.377514 9.559651 19.443359 9.619141 -26.316725 41.086636 -2.498525 -10.115231 -23.242188 19.072266 4.746094 51.063168 8.107644 2.471410 -89.169922 -5.419922 6.542968 2.000000 -2.000000 0.000000 -83.076172 23.759766 -4.751922 -79.034248 -0.528569 -2.743257 -28.171799 42.714687 -28.641270 -2.000000 2.000000 0.000000 71.816406 -27.890625 -17.416679 82.009735 0.669429 -2.979654 -14.986241 -52.851536 22.307568 -5.748797 12.882895 3.048742 15.789133 -5.048854 -1.773812 -20.477800 2.679245 -4.187403 -55.487755 -21.552397 -25.495792 26.534552 4.559033 2.380007 -11.518484 -1.354109 14.519988 
-11.487111 47.854595 12.971349 18.515627 9.003906 -23.523861 39.542850 -0.343069 -9.326787 -22.441406 19.902346 4.583403 51.063168 8.107644 2.471410 -89.042969 -7.578124 6.347657 2.000000 -2.000000 0.000000 -83.935547 23.964844 -2.798766 -79.561874 -0.509636 -2.754133 -28.761805 41.813942 -29.177202 -2.000000 2.000000 0.000000 72.646484 -30.996096 -20.913231 85.338600 0.354630 -2.948972 -16.235130 -52.754589 24.304180 1.453937 13.813364 1.936839 13.705145 -5.146708 -1.397060 -18.784552 1.428009 -3.627738 -55.667313 -22.171194 -23.190760 28.643517 4.461544 2.364190 -8.078344 -2.619438 11.916415 
-15.095342 47.601402 16.472843 17.607424 8.710938 -21.834459 37.631870 1.432224 -8.159033 -21.679688 20.205080 4.531250 51.063168 8.107644 2.471410 -89.169922 -8.984374 6.738281 2.000000 -2.000000 0.000000 -86.289063 25.097658 -3.974609 -79.383179 -0.347428 -2.655923 -29.221645 40.567348 -28.725296 -2.000000 2.000000 0.000000 73.134773 -34.746094 -21.958691 88.504341 0.250773 -3.013649 -17.997990 -52.346397 26.513979 2.791013 14.808087 1.242183 18.284555 -5.040369 -1.786387 -0.615886 0.495062 -2.341946 -54.499241 -21.989983 -18.757957 33.232117 4.355620 2.253973 -0.329067 -4.976354 7.911368 
-18.317265 47.306305 19.927240 16.699219 8.750000 -22.158201 36.732464 2.490289 -6.827672 -21.513674 19.843750 4.716797 51.063168 8.107644 2.471410 -90.126953 -9.189452 7.197266 2.000000 -2.000000 0.000000 -89.189453 26.513672 -7.915562 -78.330566 -0.556686 -2.722069 -28.518467 39.548805 -26.985916 -2.000000 2.000000 0.000000 73.095703 -36.923832 -20.996096 90.960167 0.328600 -3.175430 -19.714670 -51.715733 28.417677 0.976227 13.827114 2.457840 26.050667 -4.778811 -2.425719 5.034381 0.677391 -0.156726 -51.656410 -21.052013 -16.136076 35.334118 4.110406 2.665041 7.244780 -7.733126 5.216913 
-21.064976 47.694386 23.297167 15.673829 9.306641 -23.924200 37.907951 2.674334 -5.809959 -22.158205 18.486328 5.390625 51.063168 8.107644 2.471410 -91.865234 -8.789063 6.590304 2.000000 -2.000000 0.000000 -90.087891 26.279299 -10.996094 -77.285080 -0.594552 -2.700214 -28.002831 38.448444 -26.003706 -2.000000 2.000000 0.000000 73.750000 -36.308594 -20.400389 90.956360 0.154971 -3.048524 -19.185293 -51.079693 27.796017 -4.569581 12.623621 5.074878 36.562660 -4.274822 -3.203099 14.353217 3.615760 -1.827285 -47.834545 -19.663078 -13.536149 38.501545 3.935047 3.213184 -0.035023 -7.712466 7.214140 
-23.684704 49.279690 26.643831 14.814453 10.029298 -26.345955 39.903400 2.305907 -4.570179 -23.369143 16.796877 6.259766 51.063168 8.107644 2.471410 -93.007813 -9.609374 4.345703 2.000000 -2.000000 0.000000 -89.062500 24.140625 -11.216708 -75.531555 -1.003880 -2.842801 -26.859686 37.877403 -25.358465 -2.000000 2.000000 0.000000 74.228516 -33.583984 -20.283201 88.328285 0.250209 -3.003903 -17.282179 -50.623543 24.626661 -11.609355 11.472055 8.213701 46.261227 -3.909045 -3.587324 22.733875 6.840179 -6.415482 -40.998402 -17.494982 -12.249833 33.904827 3.739928 2.755415 -2.699253 -7.602495 8.747676 
-26.207922 50.356731 29.978697 14.482422 10.556642 -28.035322 40.923199 0.938624 -3.673826 -24.531252 15.273438 6.845704 51.063168 8.107644 2.471410 -92.324219 -11.191406 1.474610 2.000000 -2.000000 0.000000 -87.607422 22.607422 -9.263823 -73.596535 -1.069300 -2.790115 -26.150963 37.397953 -25.751215 -2.000000 2.000000 0.000000 74.648438 -30.742184 -19.492188 84.296585 0.594819 -3.042638 -14.353988 -50.546333 20.437756 -18.484825 10.975344 10.514954 51.367146 -3.731892 -4.164660 26.299086 8.886348 -10.701156 -34.544888 -15.816531 -10.188598 30.403654 4.374128 2.485355 -5.686048 -8.858196 10.487447 
-28.665762 51.773056 33.313324 14.687501 11.054688 -28.572346 40.473244 -1.062232 -2.953176 -25.292969 14.238280 6.923829 51.063168 8.107644 2.471410 -90.605469 -12.382812 -0.800781 2.000000 -2.000000 0.000000 -85.917969 22.841797 -7.183707 -72.548210 -0.935209 -2.670617 -25.096695 37.740150 -24.885601 -2.000000 2.000000 0.000000 75.332031 -28.710939 -17.690237 79.710228 0.572087 -2.819055 -10.987239 -49.672478 15.627319 -24.909498 11.072543 11.899234 50.130100 -3.634019 -3.978006 22.070248 9.061481 -11.746736 -25.349239 -14.285455 -10.109067 21.789597 4.773804 1.995546 -6.465525 -9.591067 12.013638 
-31.089926 52.899036 36.659180 15.429688 11.679688 -28.611301 39.497562 -3.338407 -2.056676 -26.054689 13.388673 6.855469 51.063168 8.107644 2.471410 -89.492188 -12.402344 -2.834129 2.000000 -2.000000 0.000000 -82.548828 24.931643 -4.947054 -73.410477 -0.736130 -2.780107 -24.599016 38.860237 -24.378580 -2.000000 2.000000 0.000000 75.947266 -27.207033 -15.869139 75.488899 0.761986 -2.720068 -7.897524 -49.360165 11.015524 -31.843977 10.965908 13.414477 44.492702 -3.876781 -3.601807 13.218565 7.104473 -11.609811 -20.349201 -13.640242 -11.825152 18.409086 4.880301 1.715723 0.248067 -7.880464 12.766458 
